<svg xmlns="http://www.w3.org/2000/svg" width="48" height="48" viewBox="0 0 512 512" role="img" aria-labelledby="zhiqi-favicon-title" data-zhiqi-logo="perch-page">
  <title id="zhiqi-favicon-title">知栖</title>
  <defs>
    <linearGradient id="favicon-bg" x1="72" y1="64" x2="430" y2="438" gradientUnits="userSpaceOnUse">
      <stop stop-color="#F9F4EA" />
      <stop offset="1" stop-color="#DCEFE6" />
    </linearGradient>
    <linearGradient id="favicon-leaf" x1="154" y1="148" x2="354" y2="372" gradientUnits="userSpaceOnUse">
      <stop stop-color="#0E766E" />
      <stop offset="1" stop-color="#378F5D" />
    </linearGradient>
  </defs>
  <rect x="32" y="32" width="448" height="448" rx="106" fill="url(#favicon-bg)" />
  <path fill="url(#favicon-leaf)" d="M154 316c62-70 132-110 214-122 13-2 23 11 17 23-34 72-92 123-172 157-18 8-38-9-28-27 7-13 18-24 32-31h-63Z" />
  <path fill="#FFFFFF" d="M166 164c67 9 123 32 168 70-54 15-104 44-150 86-19-43-25-95-18-156Z" />
  <path fill="none" stroke="#233630" stroke-width="32" stroke-linecap="round" d="M164 348h146" />
  <circle cx="352" cy="158" r="21" fill="#DDAE4E" />
</svg>
